<svg viewBox="0 0 58 47" fill="none" xmlns="http://www.w3.org/2000/svg">
<g clip-path="url(#clip0)">
<path d="M28.9356 2.14353H28.6456C19.1078 2.14353 9.37666 1.41851 -0.0322266 0.0315225V18.945C10.0856 17.3374 19.8167 16.5493 28.6456 16.5178H28.9033C38.57 16.5178 48.5589 17.2743 57.9356 18.7243V0C48.3978 1.41851 38.6344 2.14353 28.9356 2.14353Z" fill="white"/>
<path d="M29 47C18.8177 47 10.5366 38.8987 10.5366 28.9376C10.5366 25.8169 11.3422 22.7592 12.9211 20.0798L13.4688 20.3951C11.9544 22.9799 11.1811 25.943 11.1811 28.9692C11.1811 38.5835 19.1722 46.4011 29 46.4011C38.8277 46.4011 46.8188 38.5835 46.8188 28.9692C46.8188 25.9745 46.0133 23.0114 44.5311 20.4266L45.0788 20.1114C46.6255 22.7908 47.4633 25.88 47.4633 28.9692C47.4633 38.8987 39.1822 47 29 47Z" fill="white"/>
<path d="M29 38.7096C23.49 38.7096 19.0111 34.328 19.0111 28.9377C19.0111 27.1409 19.5267 25.3756 20.4611 23.8626L21.0089 24.1778C20.1067 25.5963 19.6556 27.267 19.6556 28.9377C19.6556 33.9813 23.8444 38.0792 29 38.0792C34.1556 38.0792 38.3444 33.9813 38.3444 28.9377C38.3444 26.9833 37.7322 25.1235 36.54 23.5473L37.0556 23.1691C38.3122 24.8398 38.9889 26.8572 38.9889 28.9377C38.9889 34.328 34.51 38.7096 29 38.7096Z" fill="white"/>
<path d="M17.3033 25.5963L16.6266 25.3441L17.2711 23.768L16.5944 23.5158C16.5622 23.7365 16.4655 23.9571 16.3688 24.1778C16.0466 24.9973 15.4666 25.2811 14.7577 25.0289C14.1133 24.7767 13.8877 24.1462 14.21 23.3267C14.3711 22.9169 14.6288 22.3179 14.79 21.9712L18.2055 23.2951L17.3033 25.5963ZM15.2088 22.9799C15.1444 23.0745 15.0477 23.2636 14.9833 23.4527C14.8222 23.8625 14.8866 24.1462 15.1444 24.2723C15.37 24.3669 15.6277 24.1778 15.7888 23.768C15.8533 23.6104 15.9177 23.4212 15.95 23.2636L15.2088 22.9799Z" fill="white"/>
<path d="M16.8199 29.1898L16.0788 29.1268L16.2077 27.4561L15.4666 27.3931L15.3377 28.9061L14.6288 28.8431L14.7577 27.33L14.0166 27.267L13.8555 29.0007L13.1144 28.9377L13.3399 26.4474L17.0133 26.7626L16.8199 29.1898Z" fill="white"/>
<path d="M16.2722 30.104C16.7233 30.2931 17.0777 30.766 17.1744 31.3334C17.3355 32.153 17.0777 32.7519 16.4655 32.878C16.1111 32.941 15.8211 32.8465 15.5955 32.5943C15.5311 32.9726 15.2733 33.2563 14.8544 33.3193C14.1777 33.4454 13.63 32.9726 13.4366 32.1214C13.3077 31.5225 13.4044 30.8921 13.6944 30.5138L14.4033 30.8605C14.1777 31.2073 14.0811 31.5856 14.1455 31.9323C14.2422 32.3421 14.4355 32.5628 14.6933 32.4997C14.9833 32.4367 15.0477 32.1845 14.9511 31.7117L14.8222 31.1127L15.4989 30.9866L15.6277 31.5856C15.7244 31.9638 15.8855 32.153 16.1755 32.0899C16.4333 32.0269 16.53 31.8062 16.4655 31.4595C16.4011 31.1127 16.1755 30.8605 15.7566 30.7029L16.2722 30.104Z" fill="white"/>
<path d="M16.2077 36.7551L15.4666 35.4627L14.6611 35.5888L14.2422 34.8638L18.1411 34.2964L18.6244 35.116L16.0789 38.0791L15.66 37.3225L16.2077 36.7551ZM16.2077 35.3681L16.6911 36.2193L17.6255 35.1475L16.2077 35.3681Z" fill="white"/>
<path d="M21.0411 37.8901L19.4622 41.3891L18.8177 40.7902L20.0744 38.1738L17.4644 39.5293L16.8199 38.9304L20.3322 37.2281L21.0411 37.8901Z" fill="white"/>
<path d="M23.1354 39.3086L22.491 40.601L22.8777 40.7901L24.3921 39.9075L25.1977 40.2858L23.361 41.326L23.651 43.5326L22.8132 43.1228L22.6199 41.4206L22.201 41.2314L21.5565 42.5239L20.8154 42.1771L22.4588 38.9303L23.1354 39.3086Z" fill="white"/>
<path d="M28.9677 42.713C28.8066 43.8163 27.9366 44.4782 26.841 44.3206C25.7455 44.163 25.0688 43.3119 25.2299 42.2086C25.391 41.1053 26.261 40.4433 27.3566 40.601C28.4521 40.7586 29.1288 41.6097 28.9677 42.713ZM26.0677 42.3347C25.971 42.9651 26.3577 43.4695 26.9377 43.5641C27.5499 43.6586 28.0333 43.2488 28.1299 42.6184C28.2266 41.9879 27.8399 41.4521 27.2599 41.389C26.6477 41.2945 26.1644 41.7042 26.0677 42.3347Z" fill="white"/>
<path d="M32.1577 40.4434L32.2866 41.1684L30.9332 41.389L31.4166 44.2261L30.611 44.3521L29.9988 40.7901L32.1577 40.4434Z" fill="white"/>
<path d="M36.7011 40.4749C37.1845 41.4521 36.7978 42.4924 35.8311 42.9652C34.8322 43.438 33.7689 43.0598 33.3178 42.0511C32.8345 41.0423 33.1889 40.0336 34.1878 39.5608C35.1544 39.1195 36.2178 39.4662 36.7011 40.4749ZM34.0589 41.7043C34.3489 42.2717 34.9289 42.5239 35.4767 42.2717C36.0245 42.0195 36.2178 41.4206 35.9278 40.8532C35.6378 40.2858 35.0578 40.0336 34.51 40.2858C33.9622 40.538 33.7689 41.1369 34.0589 41.7043Z" fill="white"/>
<path d="M37.7965 37.0706L41.3088 38.7728L40.6643 39.3717L38.0543 38.0162L39.3432 40.6326L38.6988 41.2315L37.1199 37.7325L37.7965 37.0706Z" fill="white"/>
<path d="M39.3433 35.1161L40.3422 35.652C40.4067 35.4944 40.4711 35.3368 40.5356 35.2107C40.9544 34.4541 41.6311 34.2335 42.3078 34.6118C43.0489 35.0216 43.21 35.8096 42.7589 36.5977C42.63 36.8499 42.4367 37.1336 42.1789 37.5434L38.9567 35.7781L39.3433 35.1161ZM41.9211 36.5031C42.0178 36.4085 42.05 36.3455 42.1144 36.2509C42.34 35.8727 42.2756 35.5259 41.9533 35.3683C41.6311 35.2107 41.3411 35.3053 41.1156 35.6835C41.0511 35.7781 41.0189 35.8727 40.9867 35.9987L41.9211 36.5031Z" fill="white"/>
<path d="M40.6966 32.0583L42.0822 32.342L42.3722 30.9551L40.9866 30.6714L41.1477 29.8833L44.7566 30.6398L44.5955 31.4279L43.1133 31.1127L42.8233 32.4997L44.3055 32.8149L44.1444 33.6029L40.5355 32.8464L40.6966 32.0583Z" fill="white"/>
<path d="M42.5977 25.281C43.7255 25.1234 44.5955 25.7854 44.7566 26.8572C44.9177 27.9289 44.2088 28.78 43.1133 28.9376C41.9855 29.0953 41.1155 28.4333 40.9544 27.3615C40.7933 26.2898 41.4699 25.4387 42.5977 25.281ZM42.9844 28.1181C43.6288 28.0235 44.0477 27.5507 43.951 26.9517C43.8866 26.3528 43.3388 26.0061 42.6944 26.1006C42.0499 26.1952 41.631 26.668 41.7277 27.267C41.8244 27.8659 42.3399 28.2126 42.9844 28.1181Z" fill="white"/>
<path d="M39.3433 22.6332L40.0199 22.3179L40.761 23.831L41.4377 23.5158L40.761 22.1288L41.4055 21.8136L42.0822 23.2006L42.7588 22.8853L41.9855 21.3407L42.6621 21.0255L43.7899 23.2951L40.471 24.8713L39.3433 22.6332Z" fill="white"/>
<path d="M28.9356 2.71089H28.6456C19.1078 2.71089 9.37666 2.04892 -0.0322266 0.756498V18.1884C10.0856 16.7069 19.8167 15.9503 28.6456 15.9503H28.9033C38.57 15.9503 48.5589 16.6438 57.9356 17.9993V0.724976C48.3978 2.04892 38.6344 2.71089 28.9356 2.71089Z" fill="#002554"/>
<path d="M4.2533 12.672L4.57552 12.4513C4.57552 12.4513 5.09107 12.073 5.18774 11.6002L6.34774 6.96639C6.41219 6.68269 6.34774 6.24137 5.92885 5.92615H11.7611C11.7611 5.92615 11.1489 7.28161 10.8911 7.78597C10.6333 7.15552 10.2144 6.77725 9.24774 6.77725H8.05552L7.57219 8.54251L7.79774 8.51099C8.08774 8.47947 8.40996 8.44794 8.69996 8.44794C10.8589 8.44794 11.0844 9.6458 11.0844 10.1817C11.0844 11.4111 9.7633 12.672 7.24996 12.672H4.2533ZM6.79885 11.7893C6.83107 11.8208 6.99219 11.8524 7.53996 11.8524C8.69996 11.8524 9.44107 11.1904 9.44107 10.1502C9.44107 9.42514 8.82885 9.26753 8.3133 9.26753C7.95885 9.26753 7.63663 9.29905 7.41107 9.39362H7.37885L6.79885 11.6948C6.79885 11.7578 6.79885 11.7578 6.79885 11.7893Z" fill="white"/>
<path d="M15.0155 12.672C15.0155 12.672 15.531 12.2622 15.5633 11.6317L15.5955 10.8437H13.211C13.211 10.8437 12.7922 11.4111 12.5988 11.6948C12.4055 11.9785 12.5344 12.4513 12.8244 12.6404H10.3755L10.601 12.4198C10.601 12.4198 11.3422 11.6948 11.5355 11.4741L15.1766 6.8403C15.241 6.74573 15.241 6.65116 15.241 6.52507C15.1766 6.17833 14.6933 5.92615 14.6933 5.92615H16.7555C16.9488 5.92615 17.1099 5.98919 17.2066 6.08376C17.3033 6.20985 17.3033 6.33594 17.3033 6.33594L17.2066 11.5687C17.2388 12.2937 17.7222 12.6404 17.7222 12.6404L15.0155 12.672ZM15.6277 10.0556L15.7566 7.47075L13.8233 10.0556H15.6277Z" fill="white"/>
<path d="M50.9111 12.6719C50.9111 12.6719 51.4267 12.2621 51.4589 11.6317L51.4911 10.8436H49.1711C49.1711 10.8436 48.7845 11.411 48.5589 11.6947C48.3656 11.9784 48.4945 12.4513 48.7845 12.6404H46.3356L46.5611 12.4197C46.5611 12.4197 47.3022 11.6947 47.4633 11.4741L50.9111 7.02941C51.1367 6.71418 50.9433 6.1783 50.5567 5.95764C50.9756 5.95764 52.6189 5.95764 52.6189 5.95764C52.8122 5.95764 52.9733 6.02069 53.07 6.11525C53.1667 6.24134 53.1667 6.36743 53.1667 6.36743L53.07 11.6002C53.1022 12.3252 53.7467 12.6719 53.7467 12.6719H50.9111ZM51.4911 10.0556L51.62 7.47072L49.7511 10.0556H51.4911Z" fill="white"/>
<path d="M18.6566 12.735C18.3989 12.735 18.1733 12.6404 18.1733 12.6404V12.6089C18.1733 12.6089 17.9155 12.2937 17.9155 11.9154C17.9155 11.5056 18.1733 11.1589 18.2055 11.1589L18.27 11.0643L18.3666 11.1273C18.3666 11.1273 18.6244 11.2849 19.0755 11.2849C19.1077 11.2849 19.14 11.2849 19.1722 11.2849C19.6877 11.2534 20.2033 10.4969 20.7833 8.85771C20.9122 8.47944 21.17 7.47072 21.17 6.99788C21.17 6.39896 20.3966 5.95764 20.3966 5.95764H25.2944C25.3911 5.95764 25.52 6.02069 25.5844 6.08373C25.6489 6.1783 25.6811 6.27287 25.6489 6.36743L24.3277 11.6632C24.2955 11.7263 24.2955 11.7893 24.2955 11.8208C24.1989 12.4828 24.7466 12.7035 24.7466 12.7035C24.7466 12.7035 22.2977 12.7035 21.8144 12.7035C22.1366 12.4828 22.5555 12.073 22.7166 11.6002L23.9089 6.84027H22.33C22.2977 6.93484 22.1689 7.50224 22.1366 7.59681C22.04 7.94356 21.9111 8.51096 21.6211 9.33055C21.2666 10.3077 20.8155 11.1904 20.2355 11.8839C19.6233 12.6089 19.0433 12.735 18.6566 12.735Z" fill="white"/>
<path d="M26.4222 12.672L26.8733 12.4198C26.9056 12.3883 27.1311 12.1991 27.3244 11.9469C27.3889 11.8524 27.4533 11.7263 27.4856 11.6002C27.4856 11.6002 28.6778 6.8403 28.6778 6.77725H28.42C27.84 6.77725 27.5178 6.99791 27.3567 7.124C26.9378 7.43923 26.6156 8.03815 26.6156 8.03815L26.2611 5.92615H32.8344L31.9 8.13272C31.9 8.13272 31.8678 7.47075 31.4811 7.06096C31.2233 6.80878 30.9011 6.77725 30.3211 6.77725L29.0644 11.6632C29.0644 11.6948 29.0644 11.7578 29.0322 11.7893C29 12.3252 29.3867 12.5774 29.5156 12.672H26.4222Z" fill="white"/>
<path d="M35.9599 12.672C35.9599 12.672 36.5077 12.2622 36.701 11.6002L37.4743 8.47947L34.091 11.5371V11.5687V11.6317C34.0588 11.6948 34.0588 11.7578 34.0588 11.7893C34.0588 11.8208 34.0588 11.8208 34.0588 11.8524C34.1232 12.4513 34.5743 12.672 34.5743 12.672H31.7388C31.7388 12.672 32.2543 12.3252 32.4477 11.6002L33.6077 6.96639C33.7688 6.39898 33.3499 5.92615 33.3499 5.92615H35.0577C35.1543 5.92615 35.2832 5.98919 35.3477 6.05224C35.4121 6.14681 35.4443 6.24137 35.4121 6.33594L34.4777 10.1186L37.861 7.02943V6.96639C38.0221 6.30442 37.4743 5.92615 37.4743 5.92615H39.3432C39.4399 5.92615 39.5688 5.98919 39.6332 6.05224C39.6977 6.14681 39.7299 6.24137 39.6977 6.33594L38.3765 11.6632C38.3443 11.7263 38.3443 11.7893 38.3443 11.8208C38.2799 12.3567 38.8277 12.7035 38.8277 12.7035L35.9599 12.672Z" fill="white"/>
<path d="M40.3099 11.6002C40.6966 9.99252 41.4699 6.96636 41.4699 6.90332C41.5666 6.39896 41.0511 5.95764 41.0511 5.95764H42.9522C43.0488 5.95764 43.1777 6.02069 43.2422 6.08373C43.3066 6.1783 43.3388 6.27287 43.3066 6.36743L42.7266 8.63705C43.1133 8.47944 43.6933 8.19574 44.3055 7.81747C44.9177 7.47072 45.4011 7.02941 45.4333 6.77723C45.4977 6.43048 45.2077 6.1783 45.2077 6.1783L44.9822 5.95764H47.1088C47.2699 5.95764 47.3988 6.02069 47.4633 6.14678C47.5277 6.24134 47.5277 6.33591 47.4633 6.43048C47.3022 6.7457 47.0122 7.12397 46.2711 7.62833C45.2399 8.35335 44.3055 8.79466 43.9511 8.95228C44.241 9.48816 45.3688 11.6632 45.4333 11.7893C45.5944 12.0415 45.7555 12.3252 46.1099 12.6719C45.5622 12.6719 43.9833 12.6719 43.4355 12.6719C43.7577 12.3567 43.6611 11.8839 43.5644 11.6947C43.0811 10.7806 42.6944 9.92947 42.4688 9.48816C42.2111 10.4654 41.9211 11.6947 41.8888 11.8208C41.8244 12.4197 42.3399 12.7035 42.3399 12.7035H39.4722C39.5366 12.6719 40.1166 12.3252 40.3099 11.6002Z" fill="white"/>
<path d="M27.5177 19.9537C25.6166 19.9537 24.5533 20.1743 23.49 21.2776H23.2966V17.8417C23.2966 17.8417 33.4144 17.8732 35.5733 17.8732C32.2866 22.7907 30.16 28.5908 29.6444 35.2736C28.7422 35.2736 27.4533 35.2736 26.1644 35.2736C26.7444 29.0006 29.1289 23.4527 31.7389 19.9537C30.16 19.9537 27.5177 19.9537 27.5177 19.9537Z" fill="white"/>
</g>
<defs>
<clipPath id="clip0">
<rect width="58" height="47" fill="white"/>
</clipPath>
</defs>
</svg>
