<?xml version="1.0" encoding="utf-8"?>
<svg version="1.1" fill="#fff" id="black" xmlns="http://www.w3.org/2000/svg" xmlns:xlink="http://www.w3.org/1999/xlink" x="0px" y="0px"
	 viewBox="0 0 262.4 51.9" style="enable-background:new 0 0 262.4 51.9;" xml:space="preserve">
<g>
	<path d="M12.5,32h6.9v12.6c-3.8-1.6-8.5-4.5-11-8.1c-0.8-1.2-1.8-3.2-1.8-7.6C7.4,30.8,9.9,32,12.5,32z M14.3,28.7h5.9
		c1.6,0,2.4-0.8,2.4-0.8v16.6c3.7-1.6,8.2-4.4,10.7-8c0.8-1.2,1.8-3.2,1.8-7.6V6.5H22.6c0,3.1,0,12.9,0,13.1c0,0.8-0.5,1.3-1.3,1.3
		H19c-0.8,0-1.3-0.5-1.3-1.3V6.5H6.5v14.4C6.5,25.6,7,28.7,14.3,28.7z M3.2,3.2v25.6c0,4.2,0.7,7.1,2.4,9.5c3.8,5.4,11,9,15.2,10.3
		C25,47.4,32.2,43.8,36,38.3c1.7-2.4,2.4-5.3,2.4-9.5V3.2H3.2z M41.7,0v28.8c0,4.9-0.9,8.4-3,11.4c-4.5,6.4-12.9,10.5-17.8,11.8
		c-5-1.2-13.3-5.3-17.8-11.8c-2.1-2.9-3-6.5-3-11.4V0H41.7z"/>
</g>
<g>
	<polygon points="91.6,36.2 75.8,36.2 75.8,11.7 91.6,11.7 91.6,15.7 80.1,15.7 80.1,21.8 90.1,21.8 90.1,25.8 
		80.1,25.8 80.1,32.1 91.6,32.1 	"/>
	<polygon points="169.1,36.2 169.1,11.7 165,11.7 164.8,12.4 154.7,28.1 154.7,11.7 150.4,11.7 150.4,36.2 154.5,36.2 
		154.7,35.5 164.7,19.7 164.7,36.2 	"/>
	<polygon points="213.6,25.8 203.5,25.8 203.5,36.2 199.2,36.2 199.2,11.7 203.5,11.7 203.5,21.8 213.6,21.8 
		213.6,11.7 217.9,11.7 217.9,36.2 213.6,36.2 	"/>
	<polygon points="140.4,15.7 130.3,15.7 130.3,36.2 126,36.2 126,11.7 144.7,11.7 144.7,36.2 140.4,36.2 	"/>
	<polygon points="116,22 110.2,33.3 107.4,33.3 101.6,22 101.6,36.2 97.3,36.2 97.3,11.7 101.5,11.7 101.6,12.4 
		108.5,26.1 109.1,26.1 116,12.5 116.1,11.7 120.3,11.7 120.3,36.2 116,36.2 	"/>
	<polygon points="255.2,36.2 250.9,36.2 250.9,15.7 243.7,15.7 243.7,11.7 262.4,11.7 262.4,15.7 255.2,15.7 	"/>
	<path d="M65.7,11.7v10.1c-0.6,0.3-2.6,1.7-5.6,1.7c-2.2,0-4.4-0.8-4.4-4.6v-7.2h-4.3v7.2c0,5.1,3.2,8.6,8.6,8.6
		c2.1,0,4.3-0.7,5.7-1.4v10.1H70V11.7H65.7z"/>
	<path d="M221.5,36.2h4.7l2.2-5.8h8.9l2.2,5.8h4.7l-9.3-24.5h-4.1L221.5,36.2z M229.8,26.4l3-8.7h0.1l3,8.7H229.8z"/>
	<path d="M192.6,15.6c-1.8-2.8-5-4.4-8.4-4.4c-3.5,0-6.7,1.6-8.4,4.4c-0.9,1.4-1.4,3.1-1.4,5.7v5.3
		c0,2.6,0.5,4.3,1.4,5.7c1.8,2.8,5,4.4,8.4,4.4c3.5,0,6.7-1.6,8.4-4.4c0.9-1.4,1.4-3.1,1.4-5.7v-5.3C194,18.7,193.5,17,192.6,15.6z
		 M189.7,26.9c0,1.5-0.3,2.6-0.9,3.4c-1,1.4-2.8,2.3-4.7,2.3c-1.8,0-3.6-0.9-4.7-2.3c-0.6-0.8-0.9-1.9-0.9-3.4v-6
		c0-1.5,0.3-2.6,0.9-3.4c1-1.4,2.8-2.3,4.7-2.3c1.8,0,3.6,0.9,4.7,2.3c0.6,0.8,0.9,1.9,0.9,3.4V26.9z"/>
</g>
</svg>
