<svg viewBox="0 0 60 61" fill="none" xmlns="http://www.w3.org/2000/svg">
<path d="M34.4262 46.4851L30.0793 49.0189C30.0793 49.0189 31.3167 48.6435 30.0793 50.0199C30.0158 49.3317 27.2871 47.7989 25.891 46.4225H25.6689L18.6567 53.3358C18.4981 54.3994 18.7202 55.8697 18.7202 55.8697C18.7202 55.8697 19.799 56.1825 21.1951 56.0886L25.7958 48.9563C25.7958 48.9563 26.716 49.0189 26.4304 49.4881L22.5277 56.9958C22.7498 57.9968 23.6065 59.2168 23.6065 59.2168C23.6065 59.2168 24.9391 58.9979 26.0179 58.4348L28.6515 49.7697L29.3495 50.2389L27.4775 59.1543C27.4775 59.1543 28.3976 60.3117 30.0475 60.9999C31.6023 60.3743 32.6176 59.1543 32.6176 59.1543L30.7773 50.2702L31.4754 49.8009L34.1089 58.4661C35.2829 58.9979 36.5203 59.2481 36.5203 59.2481C36.5203 59.2481 37.4405 58.0907 37.5991 57.0271L33.6964 49.5194C33.4743 49.0502 34.331 48.9876 34.331 48.9876L38.9317 56.1199C40.3278 56.1825 41.4066 55.9009 41.4066 55.9009C41.4066 55.9009 41.6287 54.4307 41.4701 53.3671L34.4262 46.4851Z" fill="#FAC520"/>
<path d="M39.6616 16.6421H42.1365L42.771 17.3303L45.0238 15.3282L43.7864 13.9518H41.4384L42.6124 12.7944C42.6124 12.7944 36.3935 12.7944 35.2829 12.7944C34.1724 12.7944 31.6975 12.7944 31.9514 11.418C31.0947 13.0446 32.1735 14.1082 33.8234 14.2646C33.3474 14.7964 31.7293 15.4846 31.3485 14.7339C31.285 15.7975 32.4273 15.9539 32.4273 15.9539C32.4273 15.9539 31.0947 17.4867 30.0793 19.2385C29.064 17.4867 27.7314 15.9539 27.7314 15.9539C27.7314 15.9539 28.9054 15.7975 28.8102 14.7339C28.4294 15.5159 26.7795 14.7964 26.3353 14.2646C28.0487 14.1082 29.064 13.0446 28.2073 11.418C28.366 12.7318 25.9545 12.7944 24.7806 12.7944C23.7018 12.7944 17.4511 12.7944 17.4511 12.7944L18.6251 13.9518H16.2771L15.0397 15.3282L17.2924 17.3303L17.8318 16.6421H20.3067C20.3702 16.7046 20.4654 16.7985 20.5288 16.7985C20.5923 16.861 20.5923 16.861 20.6875 16.9549C18.752 17.1113 16.5627 19.1134 15.7694 17.6431C16.2454 19.3949 18.1174 19.1759 19.1962 18.4877C19.1962 18.4877 19.0376 19.0195 19.4183 19.3949C19.4818 18.3313 22.147 18.7067 22.147 18.7067C23.5431 20.2395 24.019 22.5544 23.1624 24.5251L24.8123 23.618C24.8757 24.0872 24.9709 24.7754 24.8757 25.4636H25.3517C25.3517 24.9318 25.3517 24.3062 25.2882 23.618L25.9863 22.6169C26.3036 23.6805 26.367 24.6816 26.367 25.4636H27.6045C27.6045 24.5564 27.4458 23.5554 27.3824 23.0862L28.0169 22.3041C28.0169 22.3041 28.4929 23.7744 28.5563 25.3698H29.7303C29.6669 24.3687 29.5082 23.4616 29.3496 22.9923L29.9841 22.8359L30.6187 22.9923C30.5553 23.4616 30.3966 24.3687 30.238 25.3698H31.412C31.4754 23.7431 31.9514 22.3041 31.9514 22.3041L32.5859 23.0862C32.5225 23.4616 32.4273 24.5564 32.3638 25.4636H33.6013C33.6013 24.6816 33.6647 23.7118 33.982 22.6169L34.6801 23.618C34.6166 24.3062 34.6166 24.9318 34.6166 25.4636H35.0926C35.0291 24.7754 35.0926 24.0872 35.156 23.618L36.8059 24.5251C35.9492 22.5231 36.4252 20.2395 37.8213 18.7067C37.8213 18.7067 40.4548 18.3939 40.55 19.3949C41.0259 19.0195 40.7721 18.4877 40.7721 18.4877C41.8509 19.1759 43.7229 19.3949 44.1989 17.6431C43.4056 19.1134 41.1528 17.1113 39.2808 16.9549C39.3443 16.8923 39.3443 16.8923 39.4395 16.7985C39.5029 16.7985 39.5664 16.7359 39.6616 16.6421ZM20.1798 14.7964L19.3866 14.1082H22.5912L20.1798 14.7964ZM37.4722 14.1082H40.6769L39.8837 14.7964L37.4722 14.1082Z" fill="#FAC520"/>
<path d="M57.6203 27.9975C57.6203 27.9975 60.349 26.3082 59.9682 22.7734C59.9682 22.7734 55.9069 25.0882 49.6245 25.7764L49.7831 24.4626C54.9867 23.399 58.826 20.8652 58.826 20.8652C58.826 20.8652 60.8566 17.8621 59.0481 14.4836C59.0481 14.4836 55.7165 18.9257 49.561 21.7723V21.7098C49.4976 21.2405 49.4024 20.8026 49.3389 20.3959C49.6562 20.2395 54.8598 17.1113 56.9539 13.2636C56.9539 13.2636 57.652 9.25952 54.5425 6.88208C53.3685 11.2616 50.735 14.9528 48.2284 17.6118C47.7525 16.7672 47.3083 16.3918 47.3083 16.3918C46.8323 18.3939 45.4362 20.6149 42.9614 22.3041C43.5959 22.9923 43.9767 23.837 44.0401 24.7441C44.2623 27.1841 42.4854 28.4354 39.9788 28.6544C39.4394 28.717 38.9635 29.718 38.4241 29.5616C38.4241 29.5616 38.8048 36.0682 39.0587 36.0057C40.2326 35.8493 42.1681 35.1611 42.6441 34.8482C43.5642 37.3821 44.8334 39.7595 44.8334 39.7595C44.8334 39.7595 47.2448 40.3852 49.1168 39.0713C49.1168 39.0713 46.5468 36.6313 44.5161 33.7846L45.2141 33.2529C47.2448 35.6303 49.7197 37.5385 49.7197 37.5385C49.7197 37.5385 52.607 37.7575 53.8445 35.5364C53.8445 35.5364 50.1956 34.16 46.6737 31.7826L47.3083 31.0005C50.735 32.8462 54.1618 33.6908 54.1618 33.6908C54.1618 33.6908 57.2712 33.3154 57.9693 29.7805C57.9693 29.7805 53.5272 30.1559 48.6409 28.9359L49.1168 27.8723C53.1782 28.9359 57.6203 27.9975 57.6203 27.9975Z" fill="#FAC520"/>
<path d="M41.4385 12.0436C43.3105 12.0436 43.6912 10.198 43.5326 9.29078C43.4691 8.97796 43.374 8.66513 43.374 8.44616C43.374 8.28975 43.374 8.22719 43.4374 8.13334C43.7547 7.91437 44.5162 7.97693 45.3094 8.60257C45.7854 8.97796 46.1661 9.50975 45.944 9.91642C45.7854 10.1354 45.5633 10.3856 45.246 10.5421C44.9287 10.761 44.6114 11.0113 44.4528 11.3867C44.1355 12.0123 44.77 13.8267 46.3882 14.3897C46.7055 14.4523 46.4517 13.858 46.7055 13.4826C47.0228 13.0133 47.7843 12.8569 47.4036 12.7944C47.1815 12.7318 46.4834 12.419 46.4834 12.0123C46.42 11.6369 47.0228 11.1051 47.4988 10.7923L47.6574 10.6359C48.1968 10.2605 48.292 9.85385 48.1968 9.63488C48.1968 9.4159 48.0381 9.10308 47.5622 8.85283C47.5622 8.85283 47.4988 8.85283 47.4988 8.79026C47.4988 8.79026 47.4353 8.7277 47.0228 8.57129C46.2296 8.25847 45.6902 7.66411 45.246 7.10103C45.1825 7.03847 45.0873 6.94462 45.0239 6.78821C44.6431 6.41283 44.2306 6.56924 43.7864 6.6318C43.5643 6.69437 43.247 6.85078 42.8663 6.85078C42.8028 6.85078 42.3904 6.91334 42.3904 6.91334C42.2317 6.91334 42.0731 6.9759 42.0096 7.06975C41.851 7.22616 41.7875 7.53898 41.7875 7.8518C41.851 8.22719 42.0096 8.69642 42.1682 9.16565C42.5173 10.198 42.5173 11.8246 41.4385 12.0436Z" fill="#FAC520"/>
<path d="M12.3427 10.5733L12.5014 10.7298C12.9773 11.0426 13.5802 11.5744 13.5167 11.9498C13.4532 12.3251 12.7235 12.7318 12.5966 12.7318C12.2793 12.7944 12.9773 12.9508 13.2946 13.42C13.5167 13.7954 13.2946 14.421 13.6119 14.3272C15.1666 13.7954 15.8012 11.8872 15.5474 11.3241C15.3887 10.9487 15.0714 10.6985 14.7541 10.4795C14.4369 10.2605 14.2147 10.1041 14.0561 9.85386C13.834 9.47848 14.2147 8.94668 14.6907 8.54001C15.4839 7.91437 16.2454 7.85181 16.5627 8.07078C16.6262 8.13335 16.6262 8.22719 16.6262 8.3836C16.6262 8.60258 16.5627 8.9154 16.4675 9.22822C16.3089 10.1354 16.6896 11.981 18.5617 11.981C17.4829 11.7621 17.4829 10.2292 17.8636 9.22822C18.0223 8.75899 18.1809 8.32104 18.2444 7.91437C18.2444 7.60155 18.1809 7.28873 18.0223 7.13232C17.9588 7.06976 17.8002 6.97591 17.6415 6.97591C17.6415 6.97591 17.2608 6.91335 17.1656 6.91335C16.7848 6.91335 16.4675 6.75694 16.2454 6.69437C15.8647 6.53796 15.3887 6.38155 15.008 6.85078C14.9445 6.91335 14.8493 7.00719 14.7859 7.1636C14.3099 7.63284 13.7705 8.22719 13.009 8.63386C12.6917 8.79027 12.5331 8.85283 12.5331 8.85283C12.4696 8.85283 12.4696 8.85283 12.3745 8.9154C11.8985 9.13437 11.7399 9.44719 11.7399 9.69745C11.8033 9.82258 11.8668 10.1354 12.3427 10.5733Z" fill="#FAC520"/>
<path d="M29.2225 8.66516H27.5092C27.3505 10.1354 26.7159 11.1052 25.7958 11.6682C27.4457 11.6682 28.7466 10.198 29.2225 8.66516Z" fill="#FAC520"/>
<path d="M32.5542 8.66516H30.8408C31.3168 10.198 32.6177 11.5744 34.331 11.6682C33.3474 11.1364 32.7128 10.198 32.5542 8.66516Z" fill="#FAC520"/>
<path d="M30.0158 7.66415H32.5859C32.9031 7.28877 33.8233 5.97492 33.8233 4.75492C33.8233 4.22313 33.6012 3.7539 33.1253 3.37851C32.9032 3.2221 32.332 2.84672 31.3484 2.69031L30.111 4.84877L28.7783 2.69031C27.763 2.84672 27.2236 3.2221 27.0015 3.37851C26.5256 3.7539 26.3035 4.22313 26.3035 4.75492C26.3035 5.97492 27.2236 7.28877 27.5409 7.66415H30.0158Z" fill="#FAC520"/>
<path d="M31.2534 0.688205C31.2534 0.688205 30.7774 0 30.0794 0C29.2861 0 28.9054 0.688205 28.9054 0.688205L30.0794 2.84667L31.2534 0.688205Z" fill="#FAC520"/>
<path d="M37.8529 11.7308H39.9471C40.1692 11.4179 40.9624 10.3543 40.9624 9.35332C40.9624 8.88409 40.8038 8.57127 40.3278 8.28973C40.1692 8.13332 39.6932 7.8205 38.8365 7.75793L37.7578 9.50973L36.679 7.75793C35.8223 7.91434 35.3463 8.13332 35.1877 8.28973C34.8069 8.60255 34.5531 8.97793 34.5531 9.35332C34.5531 10.3543 35.3463 11.4179 35.5684 11.7308H37.8529Z" fill="#FAC520"/>
<path d="M38.7097 6.28771C38.7097 6.28771 38.3924 5.81848 37.853 5.81848C37.3136 5.81848 36.9963 6.28771 36.9963 6.28771L37.853 7.91438L38.7097 6.28771Z" fill="#FAC520"/>
<path d="M23.0671 6.28771C23.0671 6.28771 22.7498 5.81848 22.2104 5.81848C21.6711 5.81848 21.3538 6.28771 21.3538 6.28771L22.2104 7.91438L23.0671 6.28771Z" fill="#FAC520"/>
<path d="M22.147 11.7308H24.2411C24.4632 11.4179 25.2565 10.3543 25.2565 9.35332C25.2565 8.88409 25.0978 8.57127 24.6219 8.28973C24.4632 8.13332 23.9873 7.8205 23.1306 7.75793L22.0518 9.50973L20.973 7.75793C20.1163 7.91434 19.6404 8.13332 19.4818 8.28973C19.101 8.60255 18.8472 8.97793 18.8472 9.35332C18.8472 10.4169 19.6404 11.4179 19.8625 11.7308H22.147Z" fill="#FAC520"/>
<path d="M2.37969 27.9975C2.37969 27.9975 6.82178 28.8421 11.01 28.06L11.486 29.1236C6.56795 30.3436 2.15759 29.9682 2.15759 29.9682C2.85563 33.5031 5.96509 33.8785 5.96509 33.8785C5.96509 33.8785 9.29667 32.9713 12.8186 31.1882L13.4532 31.9703C9.86779 34.2852 6.21893 35.6616 6.21893 35.6616C7.45637 37.9764 10.3437 37.6636 10.3437 37.6636C10.3437 37.6636 12.8186 35.7554 14.8493 33.378L15.5473 33.9098C13.6118 36.7564 10.9466 39.1964 10.9466 39.1964C12.8186 40.5103 15.23 39.8846 15.23 39.8846C15.23 39.8846 16.4675 37.5698 17.4194 34.9734C17.8953 35.2862 19.8308 35.9744 21.0048 36.1308C21.2269 36.1308 21.6393 29.6867 21.6393 29.6867C21.1634 29.7493 20.624 28.8421 20.0846 28.7795C17.6097 28.5605 15.7377 27.3093 16.0233 24.8693C16.0867 23.9621 16.4992 23.1175 17.1021 22.4293C14.6272 20.74 13.2945 18.519 12.7552 16.5169C12.7552 16.5169 12.2792 16.8923 11.835 17.7369C9.36012 15.0467 6.63141 11.3554 5.52088 7.0072C2.41142 9.38464 3.10946 13.3887 3.10946 13.3887C5.20359 17.2364 10.4389 20.3646 10.7245 20.521C10.661 20.8964 10.5658 21.3657 10.5024 21.8349V21.8975C4.31517 19.0195 0.983603 14.5775 0.983603 14.5775C-0.729776 17.9559 1.20571 20.959 1.20571 20.959C1.20571 20.959 5.01322 23.4928 10.2485 24.5564L10.4072 25.8703C4.09307 25.1821 0.0634553 22.8672 0.0634553 22.8672C-0.349025 26.3082 2.37969 27.9975 2.37969 27.9975Z" fill="#FAC520"/>
<path d="M14.2147 51.1149C14.7541 50.6457 17.2607 48.5811 19.3548 48.4247C18.4981 44.5144 20.4336 43.138 21.9883 44.8898C22.5277 45.5154 22.7816 46.2036 22.845 46.7354H24.7805L24.844 38.9775L20.8778 38.9149C21.0364 39.2903 21.0364 39.5406 21.0364 39.5406C17.7683 39.478 16.4357 40.4477 16.055 41.8554V41.918C16.055 41.9806 16.055 41.9806 16.055 42.0744C16.055 42.137 16.055 42.2308 15.9915 42.2934V42.3559C15.8328 44.0452 16.5309 46.4852 15.5156 46.579C15.9915 46.8918 16.5943 46.7354 17.0068 46.2662C17.3241 46.798 17.6414 47.3298 17.8635 47.6426C17.0703 48.018 15.9915 48.2682 15.23 48.2682C13.9926 48.2682 12.9772 47.8929 11.8984 46.579C11.2004 45.7344 10.5023 45.5154 9.80429 46.579C8.24956 45.0462 7.01212 43.8262 7.01212 43.8262C7.01212 43.6698 6.94866 43.4508 6.85347 43.2944C8.50339 41.6052 6.85347 39.1652 5.3622 39.0713C4.8228 39.0713 5.90159 40.7606 4.98145 41.0734C4.50551 41.2298 4.18821 40.3852 4.8228 40.0098C4.02957 39.8534 3.10942 40.6354 3.58536 41.0734C3.10942 40.6041 2.34792 41.4488 2.50656 42.2934C2.88732 41.6677 3.68055 41.9806 3.58536 42.4498C3.26807 43.357 1.55469 42.2934 1.55469 42.8252C1.61815 44.2954 4.02957 45.8908 5.83814 44.2954C5.99678 44.4518 6.15543 44.4518 6.37753 44.4518C6.37753 44.4518 7.55152 45.6093 9.01106 47.1421C8.63031 47.4549 8.31302 48.2057 9.07452 48.8313C8.69377 50.1452 9.77256 51.4277 13.2628 51.5216C14.6589 52.9918 15.7377 54.0554 15.8328 54.118C16.2136 54.4934 16.4674 54.5872 16.6261 54.4934C16.7847 54.4934 16.8482 54.4308 17.0068 54.337C17.0703 54.2744 17.1655 54.118 17.2289 53.9616C17.2289 53.8052 17.1655 53.4923 16.8482 53.1795C16.4674 53.2421 15.5156 52.3349 14.2147 51.1149Z" fill="#FAC520"/>
<path d="M51.1793 45.5779L50.5447 46.6415L49.6245 48.3308L48.7044 46.6415L48.0698 45.5779C46.8324 46.1097 45.8805 47.3297 45.817 48.7374C44.9603 48.362 43.1835 47.8302 42.3268 47.58C42.3268 47.58 42.7076 47.0482 43.12 46.2036C43.5008 46.6728 44.1354 46.8292 44.6113 46.5164C43.596 46.36 44.294 43.92 44.1354 42.2933V42.2308C44.1354 42.1682 44.1354 42.0743 44.0719 42.0118C44.0719 41.9492 44.0719 41.9492 44.0719 41.8554V41.7928C43.6912 40.4164 42.3585 39.4154 39.0904 39.4779C39.0904 39.4779 39.0904 39.259 39.2491 38.8523L35.1877 38.9149L35.3464 46.6728H37.2819C37.3453 46.0472 37.5992 45.4528 38.1386 44.8272C39.6933 43.0754 41.6288 44.5143 40.7721 48.362C44.1988 48.8313 45.7536 51.0523 46.293 51.8969C47.2131 53.4297 49.5611 54.4933 50.4178 52.8979C51.3379 53.3672 53.4638 52.3661 53.0513 50.7395C53.2734 50.2077 53.5272 49.6759 53.5272 49.0502C53.4321 47.4861 52.4802 46.2036 51.1793 45.5779Z" fill="#FAC520"/>
<path d="M50.9254 43.8261C50.9254 43.8261 50.4495 43.1379 49.688 43.1379C48.8948 43.1379 48.4506 43.8261 48.4506 43.8261L49.688 46.141L50.9254 43.8261Z" fill="#FAC520"/>
<path d="M2.37968 40.7292C2.7652 40.7292 3.07773 40.4211 3.07773 40.041C3.07773 39.6609 2.7652 39.3528 2.37968 39.3528C1.99417 39.3528 1.68164 39.6609 1.68164 40.041C1.68164 40.4211 1.99417 40.7292 2.37968 40.7292Z" fill="#FAC520"/>
<path d="M2.28451 41.4173C2.58242 41.4173 2.82391 41.1793 2.82391 40.8856C2.82391 40.5919 2.58242 40.3538 2.28451 40.3538C1.98661 40.3538 1.74512 40.5919 1.74512 40.8856C1.74512 41.1793 1.98661 41.4173 2.28451 41.4173Z" fill="#FAC520"/>
<path d="M3.23642 40.5728C3.53432 40.5728 3.77582 40.3347 3.77582 40.041C3.77582 39.7472 3.53432 39.5092 3.23642 39.5092C2.93852 39.5092 2.69702 39.7472 2.69702 40.041C2.69702 40.3347 2.93852 40.5728 3.23642 40.5728Z" fill="#FAC520"/>
<path d="M40.201 30.6251C31.7293 32.0015 21.9884 39.7595 19.7991 46.6728C20.4337 47.8928 21.6711 48.1431 23.6066 48.1431H25.6373C27.4141 48.1431 28.8419 48.6749 29.7621 49.6759C30.6822 48.6749 32.11 48.1431 33.8869 48.1431H35.9175C38.8049 48.1431 40.201 47.5174 40.201 43.92C40.201 43.8887 40.201 30.6251 40.201 30.6251Z" fill="#E52327"/>
<path d="M31.2533 22.3979C25.7959 23.3051 20.973 26.0892 19.2596 30.8441V43.9513C19.2596 44.1703 19.2596 44.3267 19.2596 44.5769V44.6395C19.3231 45.4841 19.4817 46.1723 19.7356 46.6415C21.9249 39.8221 31.4754 32.1267 39.8837 30.5938C39.9471 30.5938 40.0423 30.5938 40.1058 30.5313V23.5554C37.3136 22.8672 34.2676 22.5544 31.2533 22.3979Z" fill="#154A9B"/>
<path d="M19.2596 34.5347C21.7345 27.7778 28.5246 23.7111 36.3934 22.4911C30.6187 22.3347 24.8757 22.8665 19.2596 24.1178V34.5347Z" fill="white"/>
<path d="M40.8989 26.84V28.5918C41.8191 28.4353 43.0882 28.2789 44.643 28.2164L42.3902 27.0589C42.295 27.1528 41.2797 26.9338 40.8989 26.84Z" fill="#B42527"/>
<path d="M19.101 26.84V28.5918C18.1808 28.4353 16.9117 28.2789 15.3569 28.2164L17.6097 27.0589C17.7049 27.1528 18.7202 26.9338 19.101 26.84Z" fill="#B42527"/>
<path d="M40.9625 22.2416H19.1011V43.2631C19.1011 47.3923 21.1317 48.237 24.2412 48.237H26.1767C28.0487 48.237 29.3813 48.9252 29.9207 50.3016L30.0794 50.6144L30.238 50.3016C30.8726 48.9252 32.1101 48.237 33.9821 48.237H35.9176C38.9636 48.237 41.0577 47.3923 41.0577 43.2631L40.9625 22.2416ZM40.1058 43.2006C40.1058 46.798 38.4559 47.4862 35.6637 47.4862H33.7283C32.1735 47.4862 30.9995 47.9554 30.1428 48.8L29.8256 49.1129L29.5083 48.8C28.6516 47.9554 27.4776 47.4862 25.9229 47.4862H23.9874C21.1952 47.4862 19.5453 46.798 19.5453 43.2006V23.0236H39.9789V43.2006H40.1058Z" fill="#FAC520"/>
<path d="M24.2411 31.9077C24.4632 32.0641 24.5584 33.1277 24.6219 33.5969C24.6219 33.5969 24.3046 33.6595 24.3998 33.8159C24.3998 33.8785 24.4632 34.1287 24.5584 34.1913C24.5584 34.2539 24.495 34.4103 24.495 34.4103C24.5584 34.6292 24.5584 34.8795 24.7171 35.0359C24.7805 35.0985 24.8757 35.0985 24.8757 35.1923C25.2565 36.6626 26.1132 36.6626 26.1132 36.6626V37.2882C25.7959 37.7574 25.193 38.5082 25.4151 38.6646C25.5738 38.821 25.6372 38.821 25.6372 38.8836C25.6372 38.8836 25.5738 39.04 25.4151 39.1026C25.3517 39.1651 25.3517 39.4154 25.4786 39.478C25.6372 39.5405 25.8593 39.5405 26.1132 39.5405L25.8911 45.0774C25.8911 45.14 25.8276 45.2964 25.7324 45.14C25.5738 44.9836 25.3517 44.7646 25.0978 44.358C24.8757 44.0451 24.8757 44.2015 24.7805 44.358C24.7171 44.5769 24.7805 44.9836 24.844 45.14C24.9075 45.359 25.3199 45.6718 25.7641 45.8282C26.1449 45.9846 26.1449 45.7656 26.1449 45.0462C26.1449 44.7333 26.3035 41.8241 26.4622 39.2903C26.5256 39.2903 26.5256 39.2903 26.6208 39.2277C27.0016 39.0087 27.4775 38.4456 27.7948 38.0077C27.9535 38.3831 27.9535 39.2277 28.1121 39.3841C28.3342 39.6969 28.4294 39.5405 28.6515 40.1662C28.715 40.3226 29.1909 40.479 29.4447 40.8544C29.9207 41.6364 31.4754 42.5436 32.0148 42.7626C32.1734 42.8251 32.3956 42.7 32.4907 42.919C32.6494 43.2318 32.6494 43.2318 32.808 43.2944C32.9667 43.3569 32.9667 43.8262 33.284 43.9826C33.6013 44.2015 33.9186 44.0451 34.1407 44.2015C34.3628 44.2641 34.6801 44.6708 34.6801 44.6708C34.7435 44.6708 34.5214 44.2954 34.3628 44.0451C34.2993 43.9826 34.3628 43.8262 34.3628 43.6697C34.5214 42.8877 33.5695 42.5123 33.5061 42.1995C33.284 41.6677 33.1888 41.9805 33.0301 41.6677C32.5542 40.9795 32.1734 40.1974 31.5389 39.7595C31.3802 39.6969 31.2216 39.6969 31.2216 39.6031C31.1581 39.5405 31.1581 39.2903 30.9043 38.9149C30.8408 38.8523 30.9677 38.5395 30.9043 38.2892C30.8408 38.2267 30.7456 38.0703 30.7456 37.82C30.7456 37.1318 30.8091 37.601 30.9677 37.8826C31.1898 38.3518 31.5071 38.9462 31.6658 39.1026C31.7292 39.1651 31.8879 39.1026 31.9831 39.1651C32.3638 39.7908 32.8398 40.2287 33.0619 40.3851C33.1253 40.4477 33.2205 40.7605 33.6013 41.2923C34.2993 42.2933 35.0925 42.8251 35.3146 43.3569C35.5367 43.8887 35.6954 43.8262 35.9492 44.0451C36.1713 44.358 36.4252 44.5769 36.6473 44.6708C36.8694 44.6708 36.9646 44.6082 37.1232 44.6082C37.3453 44.6082 37.8213 44.9836 37.8213 44.9836C37.8847 44.9836 37.504 44.4518 37.504 44.2954C37.504 44.0764 37.6626 43.92 37.5674 43.6697C37.4088 43.3569 37.028 43.2944 36.6473 42.8251C36.4252 42.6062 36.4886 42.3559 36.4252 42.1995C36.1079 41.5113 35.9492 40.5728 35.3464 39.7595C35.1243 39.4467 34.9656 39.3841 34.9656 39.1338C34.9022 38.5082 34.5849 38.1328 34.5849 37.9764C34.5849 37.82 34.807 37.5072 34.7435 37.3508C34.5214 36.819 33.9503 35.818 33.5695 34.3477C33.5061 33.9723 32.8715 33.7221 32.8715 33.4405C32.8715 33.1277 32.3956 32.9087 32.3956 32.9087C32.5542 32.1267 32.459 31.7513 32.3956 31.5323C32.2369 30.9067 31.4754 30.3123 30.3014 29.4677C30.3649 29.1549 30.5235 28.3103 30.4601 28.1538C30.4601 28.0913 30.3966 28.0913 30.3014 27.9349C30.238 27.6221 30.1428 27.3092 30.0793 27.2467C29.9207 27.0903 29.8572 27.1841 29.6986 27.1841C29.5399 27.1841 29.3813 27.1841 29.2226 27.1215C28.9053 26.9651 28.588 26.9651 28.2073 27.4969C28.1438 27.5595 28.0486 27.5595 27.9852 27.7159C27.9217 27.8723 27.8265 28.0913 27.8265 28.4041C27.7631 28.7795 27.8265 28.8733 27.8265 28.9359C27.3506 28.9359 26.7477 28.9359 26.5891 29.0923C24.7805 30.0933 24.019 31.7513 24.2411 31.9077ZM26.1132 33.6908C26.1132 33.378 26.1766 32.7836 26.1766 32.7836C26.1766 33.3154 26.8747 35.2236 26.8747 35.2236C26.8747 35.2236 26.2401 34.379 26.2401 34.3164C26.1766 34.2538 26.2401 33.941 26.1766 33.8472C26.1132 33.7533 26.1132 33.7533 26.1132 33.6908Z" fill="white"/>
<path d="M44.5478 28.2476C35.2194 24.8066 24.7171 24.8066 15.3569 28.2476C16.2771 25.3384 15.3569 23.1174 15.3569 23.1174C24.6219 19.6764 35.1877 19.6764 44.5478 23.1174C44.5478 23.0861 43.3739 25.182 44.5478 28.2476Z" fill="#E61E25"/>
<path d="M18.4029 24.7753C18.625 24.3061 18.7837 23.8682 19.0375 23.4615V23.3989H18.974C18.9106 23.3989 18.7519 23.4615 18.6567 23.4615C18.6567 23.4615 18.6567 23.4615 18.5933 23.5241C18.4346 23.8369 18.3712 24.1497 18.2125 24.4312L17.8318 23.8056C17.8318 23.8056 17.7683 23.743 17.7683 23.8056C17.7049 23.8056 17.5462 23.8682 17.451 23.8682C17.451 23.8682 17.3876 23.8682 17.3876 23.9307V24.0871C17.6097 24.4 17.7683 24.7128 18.0222 24.9943C17.8001 25.4635 17.6414 25.9953 17.3876 26.4646V26.5271C17.3876 26.5271 17.3876 26.5271 17.451 26.5271C17.5145 26.5271 17.6731 26.4646 17.7683 26.4646C17.7683 26.4646 17.7683 26.4646 17.8318 26.402C17.9904 26.0892 18.1491 25.7138 18.2125 25.401C18.3712 25.62 18.5298 25.8702 18.5933 26.0892C18.5933 26.0892 18.6567 26.1517 18.6567 26.0892C18.7202 26.0892 18.8788 26.0266 18.974 26.0266C18.974 26.0266 18.974 26.0266 19.0375 25.9641V25.9015C18.7837 25.4635 18.5616 25.182 18.4029 24.7753Z" fill="white"/>
<path d="M20.7509 23.18C20.6875 23.1174 20.5923 23.1174 20.4336 23.0236C20.3702 23.0236 20.2115 23.0236 20.0529 23.0236C19.8942 23.0236 19.7356 23.0861 19.6721 23.18C19.6087 23.2425 19.5135 23.3364 19.45 23.3989C19.3866 23.4615 19.3866 23.5554 19.2914 23.7118C19.2914 23.7743 19.2279 23.9307 19.2279 24.0246V25.0256C19.2279 25.0882 19.2279 25.2446 19.2914 25.3384C19.2914 25.401 19.3548 25.4948 19.45 25.5574C19.5135 25.62 19.6087 25.62 19.7673 25.7138H19.8308C19.8942 25.7138 19.9894 25.7138 20.0529 25.6513C20.2115 25.6513 20.275 25.5887 20.3702 25.4948C20.4336 25.4323 20.5288 25.3384 20.5923 25.2759C20.6557 25.2133 20.7509 25.1195 20.7509 24.963C20.8144 24.9005 20.8144 24.7441 20.8144 24.6502V23.6492C20.8144 23.5866 20.8144 23.4302 20.7509 23.3364C20.8144 23.2425 20.7509 23.18 20.7509 23.18ZM20.4336 23.7118V24.7754C20.4336 24.8379 20.4336 24.8379 20.4336 24.9318C20.4336 24.9943 20.3702 24.9943 20.3702 25.0882C20.3702 25.182 20.3067 25.1507 20.2115 25.1507C20.1481 25.1507 20.1481 25.2133 20.0529 25.2133C19.9894 25.2133 19.8942 25.2133 19.8942 25.2133C19.8308 25.2133 19.8308 25.2133 19.8308 25.1507L19.7673 25.0882C19.7673 25.0256 19.7673 25.0256 19.7673 24.9318V23.9307C19.7673 23.8682 19.7673 23.8682 19.7673 23.7743C19.7673 23.7118 19.7673 23.7118 19.8308 23.6179C19.8308 23.5554 19.8942 23.5554 19.9894 23.4615C20.0529 23.3989 20.0529 23.3989 20.1481 23.3989C20.2115 23.3989 20.2115 23.3989 20.2115 23.3989H20.275C20.3384 23.3989 20.3384 23.3989 20.3384 23.4615L20.4019 23.5241C20.4336 23.6179 20.4336 23.7118 20.4336 23.7118Z" fill="white"/>
<path d="M22.7498 23.8682C22.7498 23.8056 22.6863 23.8056 22.5911 23.8056C22.6546 23.8056 22.6546 23.743 22.6546 23.6492C22.718 23.5866 22.718 23.4302 22.8132 23.2738L23.0353 22.4918V22.4292H22.9719C22.9084 22.4292 22.7498 22.4292 22.6546 22.4918C22.6546 22.4918 22.5911 22.4918 22.5911 22.5543L22.369 23.3364C22.369 23.3989 22.3056 23.4928 22.3056 23.5554C22.3056 23.6179 22.2421 23.6179 22.2421 23.6179L22.1786 23.6805C22.1152 23.6805 22.1152 23.6805 22.1152 23.6805C22.0517 23.6805 21.9565 23.6805 21.9565 23.743V22.742V22.6795H21.8931C21.8296 22.6795 21.671 22.742 21.5758 22.742C21.5758 22.742 21.5123 22.742 21.5123 22.8046V25.2446V25.3072C21.5123 25.3072 21.5123 25.3072 21.5758 25.3072C21.6392 25.3072 21.7979 25.2446 21.8931 25.2446L21.9565 25.182V24.1184C22.02 24.1184 22.1152 24.1184 22.1786 24.0559C22.2421 24.0559 22.2421 24.0559 22.3373 24.0559H22.4007L22.4642 24.1184C22.4642 24.1184 22.5277 24.181 22.5277 24.2748L22.7498 24.963L22.8132 25.0256C22.8767 25.0256 23.0353 24.963 23.1305 24.963C23.1305 24.963 23.1305 24.963 23.194 24.963V24.9005L22.9719 24.1184C22.845 24.0246 22.7498 23.9307 22.7498 23.8682Z" fill="white"/>
<path d="M24.7805 23.5553C24.7805 23.4928 24.7171 23.4928 24.6219 23.3989C24.6853 23.3989 24.6853 23.3364 24.6853 23.2425C24.7488 23.18 24.7488 23.0235 24.844 22.9297L25.0661 22.1476V22.0851H25.0026C24.9392 22.0851 24.7805 22.0851 24.6853 22.0851C24.6853 22.0851 24.6219 22.0851 24.6219 22.1476L24.3998 22.9297C24.3998 22.9923 24.3363 23.0861 24.3363 23.0861C24.3363 23.1487 24.2728 23.1487 24.2728 23.1487L24.2094 23.2112C24.1459 23.2112 24.1459 23.2112 24.1459 23.2112C24.0825 23.2112 23.9873 23.2112 23.9238 23.2112V22.2102V22.1476C23.9238 22.1476 23.9238 22.1476 23.8604 22.1476C23.7969 22.1476 23.6383 22.1476 23.5431 22.2102C23.5431 22.2102 23.4796 22.2102 23.4796 22.2728V24.7128V24.7753C23.4796 24.7753 23.4796 24.7753 23.5431 24.7753C23.6065 24.7753 23.7652 24.7753 23.8604 24.7128C23.8604 24.7128 23.9238 24.7128 23.9238 24.6502V23.5866H24.1459H24.2094H24.2728L24.3363 23.6492C24.3363 23.7117 24.3998 23.7117 24.3998 23.8056L24.6219 24.4938L24.6853 24.5564C24.7488 24.5564 24.9074 24.5564 25.0026 24.4938H25.0661V24.4312L24.844 23.6492C24.9392 23.7117 24.8757 23.6179 24.7805 23.5553Z" fill="white"/>
<path d="M26.9698 21.96C26.4939 21.96 26.0497 22.0225 25.5737 22.1164C25.5737 22.1164 25.5103 22.1164 25.5103 22.1789V24.6189V24.7128C25.5103 24.7128 25.5103 24.7128 25.5737 24.7128C26.0497 24.6502 26.4939 24.6502 26.9698 24.5564C26.9698 24.5564 27.0333 24.5564 27.0333 24.4938V24.181V24.0871C27.0333 24.0871 27.0333 24.0871 26.9698 24.0871C26.6525 24.0871 26.2718 24.1497 25.9545 24.1497V23.4615C26.2718 23.4615 26.4939 23.3989 26.8112 23.3989C26.8112 23.3989 26.8746 23.3989 26.8746 23.3364V23.1174V23.0548C26.8746 23.0548 26.8746 23.0548 26.8112 23.0548C26.4939 23.0548 26.2718 23.1174 25.9545 23.1174V22.4292C26.2718 22.4292 26.6525 22.3666 26.9698 22.3666C26.9698 22.3666 27.0333 22.3666 27.0333 22.3041L26.9698 21.96C27.0333 21.96 27.0333 21.96 26.9698 21.96C27.0333 21.96 26.9698 21.96 26.9698 21.96Z" fill="white"/>
<path d="M29.1591 21.8036C29.0957 21.8036 28.937 21.8036 28.8418 21.8036H28.7784C28.5563 22.179 28.3976 22.5856 28.1438 22.961C28.0803 23.1174 27.9851 23.3364 27.8265 23.4928V21.8662C27.8265 21.8662 27.8265 21.8662 27.8265 21.8036C27.8265 21.8036 27.8265 21.8036 27.763 21.8036C27.6996 21.8036 27.5409 21.8036 27.4457 21.8036C27.3505 21.8036 27.3823 21.8036 27.3823 21.8662V24.3062C27.3823 24.3062 27.3823 24.3062 27.3823 24.3687C27.3823 24.3687 27.3823 24.3687 27.4457 24.3687C27.5092 24.3687 27.6678 24.3687 27.763 24.3687C27.763 24.3687 27.8265 24.3687 27.8265 24.3062C28.0486 23.9308 28.3024 23.4615 28.5245 23.0862L28.7466 22.6169V24.3062C28.7466 24.3062 28.7466 24.3062 28.7466 24.3687C28.7466 24.3687 28.7466 24.3687 28.8101 24.3687H29.1274C29.1274 24.3687 29.1908 24.3687 29.1908 24.3062C29.2226 23.4928 29.2226 22.7108 29.1591 21.8036C29.2226 21.8662 29.2226 21.8662 29.1591 21.8036C29.2226 21.8036 29.1591 21.8036 29.1591 21.8036Z" fill="white"/>
<path d="M27.8265 21.6472C27.8899 21.7097 27.8899 21.7097 27.9851 21.8036C28.0486 21.8036 28.1438 21.8036 28.2072 21.8036H28.2707C28.3342 21.8036 28.4928 21.8036 28.4928 21.741C28.5563 21.741 28.6515 21.6785 28.6515 21.5846C28.7149 21.522 28.7149 21.522 28.7149 21.4282C28.7149 21.3656 28.7149 21.3656 28.7784 21.2718V21.2092C28.7784 21.2092 28.7784 21.2092 28.7149 21.2092C28.6514 21.2092 28.5563 21.2092 28.4928 21.2092C28.4293 21.2092 28.4293 21.2092 28.4293 21.2718C28.4293 21.2718 28.4293 21.2718 28.4293 21.3344C28.4293 21.3344 28.4293 21.3344 28.4293 21.3969C28.4293 21.3969 28.4293 21.3969 28.3659 21.4595H28.3024H28.239C28.239 21.4595 28.1755 21.4595 28.1755 21.3969C28.1755 21.3969 28.1755 21.3969 28.1755 21.3344C28.1755 21.3344 28.1755 21.3344 28.1755 21.2718C28.1755 21.2718 28.1755 21.2092 28.1121 21.2092C28.0486 21.2092 27.9534 21.2092 27.8899 21.2092C27.8899 21.2092 27.8265 21.2092 27.8265 21.2718C27.8265 21.3344 27.8265 21.3344 27.8265 21.4282C27.7313 21.5533 27.8265 21.6472 27.8265 21.6472Z" fill="white"/>
<path d="M31.5706 21.8036C31.3485 21.8036 31.0312 21.8036 30.7773 21.8036H30.7139C30.7139 21.8036 30.7139 21.8036 30.7139 21.8662V24.3062C30.7139 24.3687 30.7139 24.3687 30.7773 24.3687C30.8408 24.3687 30.9994 24.3687 31.0946 24.3687C31.0946 24.3687 31.0946 24.3687 31.1581 24.3687C31.1581 24.3687 31.1581 24.3687 31.1581 24.3062V23.399C31.3167 23.399 31.3802 23.399 31.5388 23.399C31.6975 23.399 31.8561 23.399 31.9196 23.3364C31.983 23.2738 32.1417 23.2738 32.1417 23.18C32.2051 23.1174 32.3003 23.0236 32.3003 22.961C32.3003 22.8985 32.3638 22.8046 32.3638 22.6482C32.3638 22.4292 32.3003 22.179 32.1417 22.0226C32.0148 21.96 31.8561 21.8662 31.5706 21.8036ZM31.1581 22.2415C31.3167 22.2415 31.3802 22.2415 31.5388 22.2415C31.6975 22.2415 31.7609 22.3041 31.8561 22.3041C31.9196 22.3667 31.9196 22.4605 31.9196 22.6169C31.9196 22.6795 31.9196 22.6795 31.9196 22.7733C31.9196 22.8359 31.9196 22.8359 31.8561 22.8359L31.7927 22.8985C31.7292 22.8985 31.7292 22.8985 31.634 22.8985C31.4754 22.8985 31.4119 22.8985 31.2533 22.8985V22.2103C31.2533 22.2415 31.1581 22.2415 31.1581 22.2415Z" fill="white"/>
<path d="M34.2041 22.2415C34.1406 22.1789 34.0454 22.0851 33.982 22.0225C33.9185 21.96 33.7598 21.96 33.6012 21.96C33.4426 21.96 33.2839 21.96 33.2205 22.0225C33.157 22.0851 32.9983 22.0851 32.9983 22.1789C32.9349 22.2415 32.8397 22.3353 32.8397 22.3979C32.8397 22.4605 32.7762 22.5543 32.7762 22.7107V23.7118C32.7762 23.7743 32.7762 23.9307 32.8397 24.0246C32.8397 24.0871 32.9032 24.2436 32.9983 24.3374C33.0618 24.4 33.157 24.4938 33.2205 24.5564C33.2839 24.6189 33.4426 24.6189 33.6012 24.6189H33.6647C33.7281 24.6189 33.8233 24.6189 33.8868 24.6189C33.9502 24.6189 34.1089 24.5564 34.2041 24.4625C34.2675 24.4 34.3627 24.3061 34.3627 24.2435C34.4262 24.181 34.4262 24.0246 34.4262 23.9307V22.7733C34.4262 22.7107 34.4262 22.5543 34.3627 22.4605C34.2675 22.3979 34.2675 22.3353 34.2041 22.2415ZM33.8868 22.7733V23.8369C33.8868 23.8994 33.8868 23.8994 33.8868 23.9933C33.8868 24.0559 33.8233 24.0559 33.8233 24.0559L33.7598 24.1184C33.6964 24.1184 33.6964 24.1184 33.6012 24.1184C33.506 24.1184 33.4426 24.1184 33.4426 24.0559C33.3791 24.0559 33.3791 23.9933 33.2839 23.9933C33.2839 23.9307 33.2205 23.9307 33.2205 23.8369C33.2205 23.7743 33.2205 23.6805 33.2205 23.6805V22.6794C33.2205 22.6169 33.2205 22.6169 33.2205 22.523C33.2205 22.4605 33.2205 22.4605 33.2839 22.3666L33.3474 22.3041C33.3474 22.3041 33.4108 22.3041 33.506 22.3041C33.506 22.3041 33.506 22.3041 33.5695 22.3041C33.6329 22.3041 33.7281 22.3041 33.7281 22.3666C33.7916 22.3666 33.7916 22.4292 33.8868 22.523C33.8868 22.6482 33.982 22.6482 33.8868 22.7733C33.8868 22.7107 33.8868 22.7733 33.8868 22.7733Z" fill="white"/>
<path d="M35.2829 22.7733C35.2829 22.7107 35.2829 22.7107 35.2829 22.7733L35.4416 22.6168C35.505 22.6168 35.505 22.6168 35.6002 22.6168C35.6954 22.6168 35.7589 22.6794 35.8223 22.6794C35.8858 22.742 35.8858 22.8358 35.981 22.8984L36.0444 22.9609C36.1079 22.9609 36.2665 22.8984 36.3617 22.8984C36.3617 22.8984 36.3617 22.8984 36.4252 22.8984C36.4252 22.8984 36.4252 22.8984 36.4252 22.8358C36.3617 22.6794 36.2665 22.523 36.1079 22.4604C35.9492 22.3979 35.7906 22.304 35.6319 22.2415C35.4733 22.2415 35.4098 22.2415 35.2512 22.2415C35.1877 22.2415 35.0291 22.304 34.9339 22.3979C34.8704 22.4604 34.7752 22.5543 34.7752 22.6168C34.7752 22.6794 34.7118 22.8358 34.7118 22.9297V23.9307C34.7118 24.0871 34.7118 24.1497 34.7752 24.2435C34.8387 24.3061 34.8387 24.4625 34.9339 24.5563C34.9974 24.6189 35.0925 24.7127 35.156 24.7753C35.2195 24.8379 35.3781 24.8379 35.4733 24.8379C35.5685 24.8379 35.5368 24.8379 35.6319 24.8379C35.7906 24.8379 35.854 24.8379 35.9492 24.7753C36.1079 24.7127 36.1713 24.6189 36.2665 24.3999V24.3374L35.9492 24.1809H35.8858C35.8858 24.1809 35.8858 24.1809 35.8223 24.2435C35.8223 24.3061 35.7589 24.3999 35.7589 24.3999C35.6954 24.3999 35.6002 24.4625 35.5367 24.3999C35.4733 24.3999 35.3781 24.3999 35.3781 24.3374C35.3146 24.3374 35.3146 24.2748 35.2195 24.2748C35.2195 24.2122 35.156 24.2122 35.156 24.1184C35.156 24.0558 35.156 24.0558 35.156 23.962V22.8984C35.2195 22.8671 35.2195 22.7733 35.2829 22.7733Z" fill="white"/>
<path d="M37.2501 23.0861C37.2501 23.0236 37.2501 23.0236 37.2501 23.0861L37.4087 22.9297C37.4722 22.9297 37.4722 22.9297 37.5674 22.9297C37.6308 22.9297 37.726 22.9923 37.7895 23.0861C37.8529 23.1487 37.8529 23.2425 37.9481 23.3051L38.0116 23.3677L38.3289 23.3051H38.3923V23.2425C38.3289 23.0861 38.2337 22.9297 38.075 22.7733C37.9164 22.6169 37.7578 22.5543 37.5991 22.5543C37.4405 22.5543 37.377 22.5543 37.2184 22.5543C37.1549 22.5543 36.9962 22.6169 36.9011 22.7107C36.8376 22.7733 36.7424 22.8671 36.7424 22.9297C36.7424 22.9923 36.679 23.1487 36.679 23.2425V24.2436C36.679 24.4 36.679 24.4625 36.7424 24.5564C36.8059 24.6502 36.8059 24.7753 36.9011 24.8692C36.9645 24.9318 37.0597 25.0256 37.1232 25.0882C37.1866 25.1507 37.3453 25.1507 37.4405 25.2446C37.5039 25.2446 37.5991 25.2446 37.6626 25.2446C37.726 25.2446 37.8847 25.2446 37.9799 25.182C38.1385 25.1195 38.202 25.0256 38.2971 24.8692V24.8066C38.2337 24.7441 38.075 24.7441 37.9799 24.6502H37.9164C37.9164 24.6502 37.9164 24.6502 37.8529 24.7128C37.8529 24.7753 37.7895 24.8692 37.7895 24.8692C37.726 24.8692 37.6308 24.8692 37.5674 24.8692C37.5039 24.8692 37.4087 24.8692 37.4087 24.8066C37.3453 24.8066 37.3453 24.7441 37.2501 24.7441C37.2501 24.6815 37.1866 24.6815 37.1866 24.5877C37.1866 24.5251 37.1866 24.5251 37.1866 24.4312V23.3677C37.2501 23.18 37.2501 23.0861 37.2501 23.0861Z" fill="white"/>
<path d="M40.2009 23.0861C39.8836 23.3989 39.725 23.7117 39.5029 24.0871L39.2808 24.5564V22.9297C39.2808 22.9297 39.2808 22.8671 39.2173 22.8671C39.1538 22.8671 38.9952 22.8046 38.9 22.8046H38.8365C38.8365 22.8046 38.8365 22.8046 38.8365 22.8671V25.3071C38.8365 25.3071 38.8365 25.3697 38.9 25.3697C38.9635 25.3697 39.1221 25.4323 39.2173 25.4323H39.2808C39.5029 25.1194 39.7567 24.7441 39.9153 24.4312L40.1374 24.0558V25.6825C40.1374 25.6825 40.1374 25.7451 40.2009 25.7451C40.2644 25.7451 40.423 25.8076 40.5182 25.8076C40.5182 25.8076 40.5182 25.8076 40.5817 25.8076C40.5817 25.8076 40.5817 25.8076 40.5817 25.7451V23.3051C40.5817 23.3051 40.5817 23.2425 40.5182 23.2425C40.3596 23.18 40.2644 23.0861 40.2009 23.0861Z" fill="white"/>
<path d="M42.771 23.8682C42.7075 23.8682 42.5489 23.8057 42.4537 23.8057H42.3903C42.1682 24.1185 42.0095 24.4313 41.7557 24.7129L41.5336 25.1821V23.5554C41.5336 23.5554 41.5336 23.4929 41.4701 23.4929L41.1528 23.4303H41.0894C41.0894 23.4303 41.0894 23.4303 41.0894 23.4929V25.8703C41.0894 25.8703 41.0894 25.9329 41.1528 25.9329C41.2163 25.9329 41.3749 25.9954 41.4701 25.9954H41.5336C41.7557 25.6826 41.9143 25.3072 42.1681 24.9944L42.3903 24.619V26.2457C42.3903 26.2457 42.3903 26.3082 42.4537 26.3082C42.5172 26.3082 42.6758 26.3708 42.771 26.3708C42.771 26.3708 42.771 26.3708 42.8345 26.3708C42.8345 26.3708 42.8345 26.3708 42.8345 26.3082L42.771 23.8682C42.771 23.9308 42.771 23.8682 42.771 23.8682Z" fill="white"/>
</svg>
