<svg viewBox="0 0 57 80" fill="none" xmlns="http://www.w3.org/2000/svg">
<g clip-path="url(#clip02)">
<path d="M50.9027 7.73515L20.6946 1.17631C17.6984 0.525776 14.76 2.38032 14.1205 5.32546L1.14751 65.0755C0.508061 68.0207 2.41282 70.9268 5.40901 71.5773L35.6582 78.145C38.6544 78.7956 41.5928 76.941 42.2323 73.9959L55.2053 14.2458C55.8037 11.2918 53.8989 8.38569 50.9027 7.73515ZM19.9062 4.80731L50.1554 11.3751C51.0994 11.58 51.7128 12.5159 51.5113 13.4438L50.3989 18.5675L16.702 11.2512L17.8145 6.12749C18.0159 5.19957 18.9622 4.60235 19.9062 4.80731ZM49.5782 22.1493L40.4244 64.3092L6.76857 57.0018L15.9224 14.8419L49.5782 22.1493ZM36.4143 74.4648L6.20614 67.906C5.26213 67.701 4.64874 66.7651 4.85021 65.8372L5.9802 60.6328L39.636 67.9402L38.5061 73.1446C38.3046 74.0725 37.3583 74.6698 36.4143 74.4648Z" fill="white"/>
<path d="M40.661 10.9613L32.8627 9.26813L32.0743 12.8991L39.8726 14.5923L40.661 10.9613Z" fill="white"/>
<path d="M31.1389 8.89383L27.3629 8.07397L26.5745 11.705L30.3506 12.5248L31.1389 8.89383Z" fill="white"/>
<path d="M21.6781 69.4909C22.7888 69.7321 23.8814 69.0425 24.1185 67.9507C24.3555 66.8589 23.6473 65.7783 22.5365 65.5372C21.4258 65.296 20.3332 65.9856 20.0962 67.0774C19.8591 68.1692 20.5674 69.2498 21.6781 69.4909Z" fill="white"/>
<path d="M20.3104 39.368L19.5796 41.7441L22.4526 42.3679L20.047 46.9152L22.5917 47.4677L25.0384 42.9294L27.3779 43.4373L24.9312 47.9756L27.558 48.546L30.0047 44.0076L33.5755 44.7829L34.3473 42.4157L31.228 41.7385L32.6445 39.1733L36.0101 39.904L36.7497 37.4876L33.8766 36.8638L36.3145 32.3658L33.7287 31.8044L31.2908 36.3023L28.9103 35.7855L31.3482 31.2875L28.7214 30.7172L26.2425 35.2062L22.7537 34.4488L22.0142 36.8652L25.0514 37.5247L23.5939 40.0809L20.3104 39.368ZM27.6782 38.095L30.0177 38.6029L28.6012 41.1681L26.2207 40.6513L27.6782 38.095Z" fill="white"/>
</g>
<defs>
<clipPath id="clip02">
<rect width="42" height="72" fill="white" transform="translate(15.2768) rotate(12.25)"/>
</clipPath>
</defs>
</svg>
