<svg viewBox="0 0 77 68" fill="none" xmlns="http://www.w3.org/2000/svg">
<g clip-path="url(#clip01)">
<path d="M62.4551 8.53234L55.9598 9.94307L55.4341 7.52244L49.0591 8.90705L49.5849 11.3277L44.3326 12.4684L39.252 6.47443L25.179 9.53101L23.0427 17.0925L19.5545 17.8501L19.0287 15.4295L12.6137 16.8228L13.1394 19.2434L6.00271 20.7935C3.51689 21.3334 1.99784 24.1981 2.54111 26.6995L10.4711 63.2106C11.0144 65.7119 13.5061 67.3253 15.9919 66.7854L72.4443 54.5243C74.9301 53.9844 76.528 51.4827 75.9847 48.9814L67.9758 12.1072C67.3925 9.61456 64.9409 7.99243 62.4551 8.53234ZM22.4852 42.942C20.5399 33.9857 26.2109 25.1072 35.1118 23.174C44.0127 21.2408 52.8557 26.9668 54.8009 35.9232C56.7462 44.8795 51.0752 53.7579 42.1743 55.6911C33.2735 57.6243 24.4304 51.8983 22.4852 42.942ZM26.8279 55.0108L12.7549 58.0674L7.27834 32.8525L21.6721 29.7263C19.4011 33.7683 18.5294 38.647 19.5984 43.569C20.6236 48.2892 23.294 52.2719 26.8279 55.0108ZM57.7278 35.2875C56.6588 30.3655 53.8418 26.2879 50.0987 23.5522L66.2967 20.0341L71.7645 45.2086L55.8873 48.657C57.9753 44.7393 58.753 40.0077 57.7278 35.2875ZM6.72124 24.1017L25.7258 19.974L27.8622 12.4125L38.0059 10.2093L43.0865 16.2033L63.1736 11.8405C63.8552 11.6925 64.5793 12.1267 64.737 12.8529L65.6746 17.1697L46.229 21.3931C42.6686 19.8851 38.6106 19.3723 34.521 20.2606C30.4314 21.1488 26.943 23.2584 24.3377 26.1478L6.6963 29.9794L5.82882 25.9854C5.63976 25.3082 5.99954 24.2584 6.72124 24.1017ZM13.7187 62.5052L13.3858 60.9722L30.5059 57.2538C32.3324 58.1244 34.2981 58.6692 36.3227 58.9054L15.2734 63.4772C14.5517 63.634 13.8677 63.1911 13.7187 62.5052ZM71.7257 51.2161L48.792 56.1972C50.5362 55.1424 52.09 53.791 53.3996 52.2814L72.364 48.1624L72.697 49.6955C72.846 50.3813 72.4073 51.068 71.7257 51.2161Z" fill="white"/>
<path d="M52.7962 36.3586C51.0876 28.4916 43.3682 23.4932 35.5499 25.1913C27.7316 26.8894 22.7812 34.6396 24.4899 42.5066C26.1986 50.3737 33.958 55.3634 41.7362 53.674C49.5545 51.9759 54.5049 44.2257 52.7962 36.3586ZM27.7776 41.7925C26.4632 35.741 30.2857 29.7566 36.2998 28.4504C42.3139 27.1442 48.2743 31.0037 49.5887 37.0553C50.9031 43.1069 47.0806 49.0912 41.0665 50.3974C35.0524 51.7037 29.0919 47.8441 27.7776 41.7925Z" fill="white"/>
<path d="M36.6627 30.3148C31.6509 31.4034 28.4952 36.398 29.5818 41.4006L32.8294 40.6952C32.1284 37.4677 34.1649 34.2793 37.3724 33.5827L36.6627 30.3148Z" fill="white"/>
<path d="M36.5195 12.6445L30.1445 14.0291L30.8543 17.297L37.2292 15.9124L36.5195 12.6445Z" fill="white"/>
<path d="M62.0631 13.6871L54.2849 15.3765L54.9158 18.2812L62.694 16.5918L62.0631 13.6871Z" fill="white"/>
</g>
<defs>
<clipPath id="clip01">
<rect width="67" height="54" fill="white" transform="translate(0 14.9998) rotate(-12.254)"/>
</clipPath>
</defs>
</svg>
