<svg viewBox="0 0 88 88" fill="none" xmlns="http://www.w3.org/2000/svg">
<g clip-path="url(#clip03)">
<path d="M61.7189 7.77718L61.0166 4.54367C60.7738 3.42592 59.6591 2.74837 58.5743 2.98396L13.4986 12.7742C12.3737 13.0185 11.6893 14.1286 11.9234 15.2064L12.6344 18.4799C6.2949 21.4453 2.74851 28.3606 4.26582 35.3466C6.02591 43.4503 14.0853 48.5973 22.2407 46.826C22.9639 46.669 23.7185 46.4632 24.3755 46.1951C28.8561 51.9105 34.1496 55.9443 40.0746 58.0435C39.6289 59.478 39.5771 61.3704 40.6361 63.1469C39.6491 63.4449 39.0363 64.4976 39.2618 65.5356L40.623 71.803L38.2527 72.3178C37.1278 72.5621 36.4348 73.6323 36.6775 74.7501L37.848 80.1392C38.0908 81.257 39.1654 81.9433 40.2903 81.6989L62.6674 76.8388C63.7923 76.5944 64.4854 75.5242 64.2426 74.4065L63.0721 69.0173C62.8294 67.8995 61.7548 67.2133 60.6299 67.4576L58.2596 67.9724L56.8984 61.705C56.6729 60.6671 55.6874 60.0033 54.657 60.1016C54.8836 58.0459 54.0602 56.3854 53.0509 55.2251C59.0332 49.4529 62.6464 41.1018 63.6014 30.778C64.5084 21.0081 62.757 12.9443 62.679 12.585L62.3582 11.108C67.6346 11.3833 72.141 15.0864 73.2855 20.3559C74.4127 25.5454 71.8744 30.9041 67.1387 33.3121L68.65 36.2027C74.7051 33.0901 77.9789 26.2758 76.531 19.6092C75.0452 12.5745 68.8205 7.73966 61.7189 7.77718ZM21.5471 43.6324C15.1594 45.0198 8.85837 40.9958 7.47978 34.6485C6.35263 29.4589 8.80505 24.2861 13.3627 21.8331L13.6662 23.2303C13.7355 23.5497 15.4869 31.6135 20.3737 40.1668C21.0442 41.3171 21.6974 42.3875 22.4309 43.4405C22.1095 43.5103 21.8283 43.5714 21.5471 43.6324ZM60.1813 70.8157L60.8316 73.8096L40.8247 78.155L40.1744 75.161L42.5447 74.6462C43.6696 74.4019 44.3627 73.3317 44.1199 72.2139L42.7587 65.9465L54.0075 63.5033L55.1087 68.5732L47.0738 70.3183L47.7674 73.5119L60.1813 70.8157ZM51.1531 60.8209L44.2431 62.3217C42.9668 61.094 43.0194 59.7867 43.2564 58.9409C44.3648 59.2018 45.5449 59.4053 46.7077 59.529L47.2646 59.5753L47.7522 59.3022C48.7589 58.7073 49.708 58.0413 50.6485 57.3354C51.215 58.0066 51.7965 59.1344 51.1531 60.8209ZM46.5363 56.222C25.7353 53.4244 18.2775 27.9976 17.0448 23.2908L53.925 15.2806L53.2314 12.087L16.3512 20.0972L15.3975 15.706L58.1029 6.4306L59.5769 13.217C59.6061 13.5451 66.0349 43.919 46.5363 56.222Z" fill="white"/>
</g>
<defs>
<clipPath id="clip03">
<rect width="74" height="73" fill="white" transform="translate(0 15.706) rotate(-12.254)"/>
</clipPath>
</defs>
</svg>
